<svg xmlns="http://www.w3.org/2000/svg" width="1024" height="1024" viewBox="0 0 1024 1024" version="1.1"><path d="M 364.965 358.956 C 343.271 373.428, 327.266 395.607, 320.918 420 C 317.730 432.252, 317.177 453.313, 319.577 471.072 C 324.885 510.338, 320.141 526.525, 291.193 567.928 C 287.917 572.614, 286 576.398, 286 578.178 C 286 583.660, 292.055 587.315, 308 591.457 C 324.060 595.629, 325.267 597.722, 320.433 613.022 C 318.050 620.568, 317.979 621.319, 319.443 623.553 C 321.809 627.164, 326.725 629.247, 334.131 629.777 C 342.777 630.396, 349.733 628.706, 359.092 623.714 C 367.282 619.346, 370 619.284, 370 623.466 C 370 630.535, 354.974 639.936, 339.208 642.731 C 329.707 644.415, 329.499 644.567, 329.954 649.500 C 330.056 650.600, 332.245 654.650, 334.820 658.500 L 339.500 665.500 339.169 682.500 C 338.850 698.917, 338.918 699.620, 341.171 703 C 342.503 705, 345.645 707.571, 348.501 709 C 353.057 711.278, 354.608 711.495, 366 711.448 C 380.440 711.387, 393.633 708.962, 423.890 700.806 C 452.432 693.112, 462.161 693.196, 475.245 701.246 C 487.808 708.976, 498.322 728.312, 503.113 752.500 C 505.285 763.461, 504.995 798.855, 502.630 811.500 C 501.601 817, 500.348 822.288, 499.845 823.250 C 499.341 824.212, 499.131 825, 499.377 825 C 499.623 825, 508.131 818.362, 518.284 810.250 C 541.802 791.459, 555.971 781.305, 574.611 769.887 C 582.800 764.870, 590.712 760.024, 592.193 759.118 L 594.887 757.469 589.116 750.229 C 576.048 733.832, 568.439 716.750, 565.705 697.669 C 564.345 688.174, 563.443 686.957, 556.709 685.532 C 555.174 685.207, 554.185 684.510, 554.511 683.982 C 554.840 683.449, 554.418 683.286, 553.560 683.615 C 552.652 683.964, 551.764 683.550, 551.404 682.609 C 551.066 681.731, 550.435 681.231, 550 681.500 C 549.565 681.769, 548.954 681.324, 548.643 680.511 C 548.331 679.699, 547.429 679.282, 546.639 679.585 C 545.849 679.888, 544.862 679.586, 544.447 678.914 C 543.932 678.080, 544.108 677.949, 545 678.500 C 545.873 679.039, 546.068 678.919, 545.585 678.138 C 545.187 677.494, 544.534 677.170, 544.133 677.418 C 543.080 678.069, 540.500 676.279, 540.500 674.898 C 540.500 674.252, 539.182 673.582, 537.571 673.411 C 528.174 672.409, 512.719 660.503, 506.912 649.792 C 503.644 643.765, 503.500 643.058, 503.506 633 C 503.512 623.745, 503.853 621.670, 506.379 615.500 C 507.956 611.650, 513.468 602.071, 518.627 594.213 C 534.369 570.239, 537.403 562.594, 537.361 547 C 537.332 535.950, 535.378 527.685, 530.507 518.013 C 520.695 498.529, 506.299 485.702, 457.596 453.049 C 425.992 431.859, 405.449 412.695, 390.548 390.500 C 384.823 381.973, 376.529 365.217, 374.832 358.750 C 374.146 356.137, 373.318 354, 372.991 354 C 372.664 354, 369.052 356.230, 364.965 358.956 M 363.500 454.354 C 356.004 456.339, 352.033 458.290, 346.415 462.750 C 340.404 467.521, 337.364 472.944, 338.994 475.988 C 340.568 478.930, 343.036 478.504, 352.782 473.609 C 364.696 467.626, 370.730 465.997, 380.932 466.013 C 392.426 466.031, 405.009 468.788, 419.500 474.465 C 436.234 481.020, 436.203 481.016, 431.500 476.042 C 422.974 467.026, 409.344 459.054, 396.464 455.553 C 388.287 453.329, 369.897 452.661, 363.500 454.354 M 401.168 509.065 C 388.039 514.893, 372.794 515.540, 363.283 510.671 C 357.277 507.596, 355.457 507.368, 354.607 509.582 C 351.794 516.913, 360.364 525.365, 372.728 527.454 C 381.013 528.854, 397.111 522.849, 406.250 514.950 C 414.313 507.981, 411.347 504.546, 401.168 509.065" stroke="none" fill="#bcd5c4" fill-rule="evenodd"/><path d="M 481.063 156.103 C 481.031 163.860, 480.568 172.972, 480.034 176.353 C 474.478 211.520, 471.556 258.697, 473.929 274.927 C 479.376 312.180, 498.646 339.573, 535.358 362.253 C 543.313 367.167, 568.633 379.998, 570.379 379.999 C 571.340 380, 570.789 371.373, 568.396 349 C 564.323 310.908, 551.745 266.456, 537.413 239.500 C 533.211 231.596, 533.285 231.531, 538.570 238.496 C 556.689 262.368, 569.524 292.190, 576.877 327.500 C 579.973 342.363, 584.688 376.935, 586.561 398.500 C 588.545 421.345, 588.861 477.577, 587.122 498.500 C 584.312 532.311, 581.053 554.388, 572.728 596 C 564.976 634.750, 563.862 643.746, 563.881 667.488 C 563.910 705.502, 570.397 726.731, 589.193 750.323 L 594.887 757.469 592.193 759.118 C 590.712 760.024, 582.800 764.870, 574.611 769.887 C 555.971 781.305, 541.802 791.459, 518.284 810.250 C 508.131 818.363, 499.623 825, 499.377 825 C 499.131 825, 499.341 824.212, 499.845 823.250 C 500.348 822.288, 501.601 817, 502.630 811.500 C 504.995 798.855, 505.285 763.461, 503.113 752.500 C 498.322 728.312, 487.808 708.976, 475.245 701.246 C 462.161 693.196, 452.432 693.112, 423.890 700.806 C 393.633 708.962, 380.440 711.387, 366 711.448 C 354.608 711.495, 353.057 711.278, 348.501 709 C 345.645 707.571, 342.503 705, 341.171 703 C 338.918 699.620, 338.850 698.917, 339.169 682.500 L 339.500 665.500 334.820 658.500 C 332.245 654.650, 330.056 650.600, 329.954 649.500 C 329.499 644.567, 329.707 644.415, 339.208 642.731 C 354.974 639.936, 370 630.535, 370 623.466 C 370 619.284, 367.282 619.346, 359.092 623.714 C 349.733 628.706, 342.777 630.396, 334.131 629.777 C 326.725 629.247, 321.809 627.164, 319.443 623.553 C 317.979 621.319, 318.050 620.568, 320.433 613.022 C 325.267 597.722, 324.060 595.629, 308 591.457 C 292.055 587.315, 286 583.660, 286 578.178 C 286 576.398, 287.917 572.614, 291.193 567.928 C 307.949 543.963, 314.071 532.689, 318.576 517.500 C 321.924 506.211, 322.255 490.883, 319.577 471.072 C 317.177 453.313, 317.730 432.252, 320.918 420 C 327.146 396.068, 343.226 373.508, 363.979 359.584 C 373.539 353.170, 373.371 353.183, 374.825 358.725 C 376.528 365.214, 384.814 381.960, 390.548 390.500 C 405.449 412.695, 425.992 431.859, 457.596 453.049 C 506.299 485.702, 520.695 498.529, 530.507 518.013 C 535.378 527.685, 537.332 535.950, 537.361 547 C 537.403 562.594, 534.369 570.239, 518.627 594.213 C 513.468 602.071, 507.956 611.650, 506.379 615.500 C 503.853 621.670, 503.512 623.745, 503.506 633 C 503.501 642.604, 503.742 643.959, 506.334 648.883 C 511.696 659.067, 521.812 667.841, 533.163 672.154 C 536.037 673.246, 540.053 675.458, 542.088 677.070 C 544.123 678.681, 546.102 680, 546.486 680 C 546.869 680, 544.713 677.988, 541.694 675.528 C 534.195 669.419, 529.453 663.665, 525.792 656.228 C 523.232 651.029, 522.696 648.722, 522.653 642.728 C 522.567 630.492, 527.330 621.220, 544.939 599.352 C 557.149 584.188, 563.899 570.349, 566.572 555 C 570.483 532.538, 564.928 513.799, 548.407 493.716 C 537.781 480.800, 521.314 468.447, 487.500 448.028 C 437.317 417.723, 413.708 395.976, 399.126 366.622 C 393.265 354.824, 390.953 348.002, 388.488 335.230 C 386.449 324.667, 387.379 325.058, 376.221 330.077 C 348.005 342.769, 322.786 368.361, 312.073 395.176 C 302.390 419.412, 300.854 445.167, 307.199 476.915 C 312.613 504.004, 308.901 517.854, 287.611 550 C 282.693 557.425, 277.638 565.553, 276.377 568.062 C 267.821 585.084, 277.009 597.317, 302.250 602.512 C 307.063 603.502, 311 604.397, 311 604.500 C 311 604.603, 310.100 607.303, 309 610.500 C 305.243 621.419, 306.735 629.981, 313.462 636.102 C 316.462 638.832, 317.093 640.069, 316.964 642.966 C 316.551 652.226, 316.969 653.799, 321.680 660.672 C 325.631 666.437, 326.344 668.200, 326.265 672 C 326.214 674.475, 326.047 681.737, 325.894 688.138 C 325.622 699.491, 325.695 699.937, 328.843 706.332 C 333.615 716.025, 340.815 721.139, 352.825 723.366 C 360.283 724.749, 375.626 724.594, 384 723.052 C 399.321 720.230, 416.693 716.506, 427 713.836 C 433.325 712.197, 442.553 710.604, 447.507 710.296 C 455.338 709.808, 457.179 710.022, 461.614 711.929 C 478.086 719.015, 489 747.141, 489 782.500 C 489 807.960, 481.952 836.993, 466.120 876.750 C 464.970 879.638, 464.404 882, 464.862 882 C 465.320 882, 473.301 874.749, 482.597 865.887 C 519.274 830.922, 551.253 805.540, 582 786.986 C 594.609 779.377, 625.201 764.265, 629.750 763.397 C 633.773 762.630, 633.823 761.918, 630.011 759.666 C 625.968 757.278, 613.864 743.397, 608.233 734.694 C 600.161 722.215, 594.344 705.670, 592.054 688.678 C 588.372 661.349, 595.379 600.405, 603.920 585.470 C 605.484 582.737, 610.115 576.675, 614.213 572 C 634.209 549.185, 654.149 535.620, 673.817 531.451 C 683.528 529.393, 686.694 529.642, 680.259 531.959 C 668.945 536.030, 650.868 546.197, 641.500 553.756 C 639.850 555.087, 634.323 560.279, 629.218 565.294 L 619.935 574.410 623.628 576.639 C 631.204 581.211, 642.224 583.395, 658 583.450 C 671.610 583.497, 672.987 583.321, 680.439 580.579 C 693.569 575.750, 703.381 568.304, 724.750 546.952 C 735.337 536.374, 744 527.547, 744 527.337 C 744 527.127, 740.201 524.479, 735.557 521.452 C 718.482 510.322, 706.367 506.119, 688.975 505.292 C 679.275 504.831, 676.113 505.082, 669.010 506.878 C 645.451 512.836, 631.266 525.689, 611 559.445 C 608.047 564.365, 605.468 567.903, 605.269 567.307 C 604.628 565.385, 614.417 528.702, 620.162 511.500 C 623.608 501.181, 630.612 484.701, 634.498 477.767 C 637.458 472.489, 636.374 472.959, 657 467.997 C 691.504 459.697, 713.150 445.893, 728.675 422.288 C 737.831 408.367, 740.923 400.280, 748.093 371.500 C 750.833 360.500, 754.472 347.225, 756.179 342 C 759.362 332.258, 766.008 317.873, 768.771 314.744 C 769.623 313.778, 770.103 312.770, 769.838 312.504 C 769.099 311.766, 744.040 310.149, 739.500 310.547 C 737.300 310.739, 731.675 311.124, 727 311.401 C 690.205 313.580, 653.081 332.061, 631.856 358.763 C 622.110 371.025, 617.043 381.593, 614.098 395.799 C 612.757 402.273, 612.677 418.455, 613.948 426.219 C 615.257 434.210, 619.068 448, 619.967 448 C 620.379 448, 622.430 445.188, 624.524 441.750 C 628.733 434.844, 638.944 420.230, 642.937 415.400 C 644.347 413.694, 647.075 410.324, 649 407.909 C 660.172 393.895, 675.839 378.249, 689.500 367.463 L 694.500 363.516 688 370.516 C 680.392 378.709, 666.881 395.437, 658.836 406.624 C 645.088 425.743, 631.416 450.461, 615.981 484.104 L 608.230 500.999 608.148 480.250 C 608.061 458.216, 607.726 452.022, 605.379 429 C 603.460 410.181, 600.716 393.915, 596.489 376.308 L 593.083 362.115 597.661 352.318 C 604.317 338.075, 610.672 318.167, 613.109 303.928 C 615.901 287.612, 615.369 271.045, 611.593 256.776 C 598.497 207.284, 554.638 165.682, 495.274 146.445 C 487.730 144, 481.460 142, 481.339 142 C 481.219 142, 481.095 148.346, 481.063 156.103 M 363.500 454.354 C 356.004 456.339, 352.033 458.290, 346.415 462.750 C 340.404 467.521, 337.364 472.944, 338.994 475.988 C 340.568 478.930, 343.036 478.504, 352.782 473.609 C 364.696 467.626, 370.730 465.997, 380.932 466.013 C 392.426 466.031, 405.009 468.788, 419.500 474.465 C 436.234 481.020, 436.203 481.016, 431.500 476.042 C 422.974 467.026, 409.344 459.054, 396.464 455.553 C 388.287 453.329, 369.897 452.661, 363.500 454.354 M 401.168 509.065 C 388.039 514.893, 372.794 515.540, 363.283 510.671 C 357.277 507.596, 355.457 507.368, 354.607 509.582 C 351.794 516.913, 360.364 525.365, 372.728 527.454 C 381.013 528.854, 397.111 522.849, 406.250 514.950 C 414.313 507.981, 411.347 504.546, 401.168 509.065" stroke="none" fill="#729b88" fill-rule="evenodd"/></svg>