<?xml version="1.0" encoding="UTF-8"?>
<svg width="120" height="120" viewBox="0 0 120 120" fill="none" xmlns="http://www.w3.org/2000/svg">
  <path d="M60 10C40 10 20 30 20 60C20 90 40 110 60 110C80 110 100 90 100 60C100 30 80 10 60 10Z" fill="url(#paint0_radial)"/>
  <path d="M60 20C45 20 30 35 30 60C30 85 45 100 60 100C75 100 90 85 90 60C90 35 75 20 60 20Z" fill="url(#paint1_linear)"/>
  <path d="M60 30C50 30 40 40 40 60C40 80 50 90 60 90C70 90 80 80 80 60C80 40 70 30 60 30Z" fill="url(#paint2_radial)"/>
  <defs>
    <radialGradient id="paint0_radial" cx="0" cy="0" r="1" gradientUnits="userSpaceOnUse" gradientTransform="translate(60 60) rotate(90) scale(50)">
      <stop offset="0.6" stop-color="#98E6C0" stop-opacity="0.1"/>
      <stop offset="1" stop-color="#98E6C0" stop-opacity="0"/>
    </radialGradient>
    <linearGradient id="paint1_linear" x1="60" y1="20" x2="60" y2="100" gradientUnits="userSpaceOnUse">
      <stop offset="0" stop-color="#98E6C0" stop-opacity="0.1"/>
      <stop offset="1" stop-color="#98E6C0" stop-opacity="0"/>
    </linearGradient>
    <radialGradient id="paint2_radial" cx="0" cy="0" r="1" gradientUnits="userSpaceOnUse" gradientTransform="translate(60 60) rotate(90) scale(30)">
      <stop offset="0" stop-color="#98E6C0" stop-opacity="0.05"/>
      <stop offset="1" stop-color="#98E6C0" stop-opacity="0"/>
    </radialGradient>
  </defs>
</svg>
